<?xml version="1.0" standalone="no"?>
<!DOCTYPE svg PUBLIC "-//W3C//DTD SVG 20010904//EN"
 "http://www.w3.org/TR/2001/REC-SVG-20010904/DTD/svg10.dtd">
<svg version="1.0" xmlns="http://www.w3.org/2000/svg"
 width="200.000000pt" height="200.000000pt" viewBox="0 0 200.000000 200.000000"
 preserveAspectRatio="xMidYMid meet">

<g transform="translate(0.000000,200.000000) scale(0.100000,-0.100000)"
fill="#000000" stroke="none">
<path d="M550 1065 c0 -16 6 -25 15 -25 11 0 15 -11 15 -40 0 -29 -4 -40 -15
-40 -8 0 -15 -9 -15 -20 0 -18 7 -20 60 -20 53 0 60 2 60 20 0 11 -7 20 -15
20 -11 0 -15 11 -15 40 0 29 4 40 15 40 9 0 15 9 15 25 0 24 -3 25 -60 25 -57
0 -60 -1 -60 -25z"/>
<path d="M700 1005 l0 -85 30 0 c28 0 30 3 30 36 0 31 2 35 15 24 12 -10 18
-10 30 0 13 11 15 7 15 -24 0 -32 3 -36 25 -36 25 0 25 1 25 85 l0 85 -28 0
c-22 0 -32 -7 -41 -27 l-13 -28 -14 28 c-11 20 -22 27 -44 27 l-30 0 0 -85z"/>
<path d="M916 1047 c-9 -23 -16 -62 -16 -85 0 -40 1 -42 30 -42 23 0 30 4 30
20 0 11 7 20 15 20 8 0 15 -9 15 -20 0 -16 7 -20 30 -20 29 0 30 2 30 45 0 24
-7 63 -16 85 -15 38 -18 40 -59 40 -41 0 -43 -2 -59 -43z m74 -39 c0 -5 -7 -8
-15 -8 -17 0 -18 2 -9 25 5 13 8 14 15 3 5 -7 9 -16 9 -20z"/>
<path d="M1092 1078 c-7 -7 -12 -39 -12 -79 0 -77 2 -79 86 -79 l54 0 0 46 c0
44 -1 45 -27 42 -20 -2 -29 -9 -31 -26 -5 -35 -27 -20 -27 19 0 31 3 34 35 39
27 4 35 10 35 25 0 17 -8 20 -50 23 -30 2 -55 -2 -63 -10z"/>
<path d="M1250 1005 l0 -85 65 0 c58 0 65 2 65 20 0 16 -7 20 -34 20 -19 0
-38 5 -41 10 -4 6 7 10 25 10 27 0 31 3 28 23 -2 16 -11 23 -33 26 -28 5 -28
5 10 10 32 5 41 11 43 29 3 21 0 22 -62 22 l-66 0 0 -85z"/>
<path d="M557 854 c-4 -4 -7 -45 -7 -91 l0 -83 30 0 c27 0 30 3 30 30 0 25 4
30 25 30 18 0 25 5 25 20 0 15 -7 20 -25 20 -16 0 -25 6 -25 15 0 11 11 15 36
15 31 0 35 3 32 23 -3 19 -10 22 -58 25 -31 2 -59 0 -63 -4z"/>
<path d="M718 849 c-14 -8 -18 -24 -18 -77 0 -40 5 -73 12 -80 7 -7 33 -12 59
-12 61 0 79 23 79 97 0 42 -4 55 -22 67 -25 18 -84 21 -110 5z m72 -79 c0 -33
-3 -40 -20 -40 -17 0 -20 7 -20 40 0 33 3 40 20 40 17 0 20 -7 20 -40z"/>
<path d="M874 847 c-3 -8 -4 -47 -2 -88 3 -72 4 -74 31 -77 24 -3 27 0 27 27
0 24 4 31 20 31 16 0 20 -7 20 -30 0 -27 3 -30 30 -30 28 0 30 2 30 39 0 22
-4 43 -10 46 -5 3 -10 22 -10 41 0 28 -5 36 -26 44 -38 15 -104 12 -110 -3z
m84 -49 c-6 -18 -28 -21 -28 -4 0 9 7 16 16 16 9 0 14 -5 12 -12z"/>
<path d="M1080 847 c-22 -11 -25 -20 -28 -77 -4 -78 7 -90 85 -90 l53 0 0 45
c0 41 -2 45 -25 45 -18 0 -25 -5 -25 -20 0 -11 -7 -20 -15 -20 -11 0 -15 11
-15 40 0 39 1 40 36 40 31 0 35 3 32 23 -2 17 -10 23 -38 25 -19 1 -46 -4 -60
-11z"/>
<path d="M1227 854 c-4 -4 -7 -45 -7 -91 l0 -83 65 0 c63 0 65 1 65 25 0 22
-4 25 -35 25 -19 0 -35 5 -35 10 0 6 11 10 25 10 18 0 25 5 25 20 0 15 -7 20
-25 20 -14 0 -25 5 -25 10 0 6 16 10 36 10 31 0 35 3 32 23 -3 19 -10 22 -58
25 -31 2 -59 0 -63 -4z"/>
</g>
</svg>
